# xmcd
#
# Track frame offsets: 
#        150
#        13625
#        27872
#        40802
#        57792
#        75291
#        90942
#        107032
#        122719
#        138788
#        153544
#        170692
#        183994
#
# Disc length: 2656 seconds
#
# Revision: 0
# Processed by: cddbd v1.5.2PL0 Copyright (c) Steve Scherf et al.
# Submitted via: ExactAudioCopy v1.3
#
DISCID=930a5e0d
DTITLE=Colt Ford - Love Hope Faith
DYEAR=2017
DGENRE=Southern rap
TTITLE0=Reload
TTITLE1=Dynamite
TTITLE2=Young Americans
TTITLE3=Dirt Road Disco
TTITLE4=4 Lane Gone
TTITLE5=My Truck
TTITLE6=Lookin' for a Hand out
TTITLE7=Time Flies
TTITLE8=No Rest
TTITLE9=I'm Mud
TTITLE10=Bad Day
TTITLE11=Drunk Girl
TTITLE12=Keepin' it Real
EXTD=
EXTT0=
EXTT1=
EXTT2=
EXTT3=
EXTT4=
EXTT5=
EXTT6=
EXTT7=
EXTT8=
EXTT9=
EXTT10=
EXTT11=
EXTT12=
PLAYORDER=
